<?xml version="1.0" encoding="UTF-8" standalone="no"?>
<svg width="24px" height="24px" viewBox="0 0 24 24" version="1.1" xmlns="http://www.w3.org/2000/svg" xmlns:xlink="http://www.w3.org/1999/xlink">
    <!-- Generator: Sketch 3.8.3 (29802) - http://www.bohemiancoding.com/sketch -->
    <title>selected_icon</title>
    <desc>Created with Sketch.</desc>
    <defs></defs>
    <g id="specification" stroke="none" stroke-width="1" fill="none" fill-rule="evenodd">
        <g id="spec" transform="translate(-411.000000, -2757.000000)" fill="#FFFFFF">
            <g id="selected_icon" transform="translate(411.000000, 2757.000000)">
                <path d="M23.3333333,0 L23.0666667,0 L16,2.8 L8,0 L0.533333333,2.53333333 C0.266666667,2.66666667 0,2.8 0,3.2 L0,23.3333333 C0,23.7333333 0.266666667,24 0.666666667,24 L0.933333333,24 L8,21.2 L16,24 L23.4666667,21.4666667 C23.7333333,21.3333333 24,21.0666667 24,20.8 L24,0.666666667 C24,0.266666667 23.7333333,0 23.3333333,0 L23.3333333,0 Z M16,21.3333333 L8,18.5333333 L8,2.66666667 L16,5.46666667 L16,21.3333333 L16,21.3333333 Z" id="Shape"></path>
            </g>
        </g>
    </g>
</svg>