<?xml version="1.0" encoding="UTF-8"?>
<svg width="36px" height="36px" viewBox="0 0 36 36" version="1.1" xmlns="http://www.w3.org/2000/svg" xmlns:xlink="http://www.w3.org/1999/xlink">
    <!-- Generator: Sketch 41.1 (35376) - http://www.bohemiancoding.com/sketch -->
    <title>settings</title>
    <desc>Created with Sketch.</desc>
    <defs></defs>
    <g id="MainTab" stroke="none" stroke-width="1" fill="none" fill-rule="evenodd">
        <g id="loading" transform="translate(-852.000000, -353.000000)" fill="#FFFFFF">
            <g id="settings" transform="translate(852.646018, 353.187500)">
                <path d="M30.7404072,19.6708907 C30.7404072,19.1344119 30.9194518,18.5979331 30.9194518,17.882628 C30.9194518,17.1673228 30.9194518,16.630844 30.7404072,16.0943652 L34.5003431,13.0543184 C34.8584323,12.6966658 34.8584323,12.3390133 34.6793877,11.9813607 L31.0984964,5.72244094 C30.9194518,5.54361467 30.5614329,5.36478839 30.024229,5.54361467 L25.5481148,7.33187746 C24.652892,6.61657234 23.5786246,6.0800935 22.5043572,5.54361467 L21.788179,0.894131398 C21.9672235,0.357652559 21.4300196,0 21.0720007,0 L13.9102181,0 C13.5520587,0 13.0149952,0.357652559 13.0149952,0.715305118 L12.298817,5.54361467 C11.2245496,5.90126722 10.3293267,6.61657234 9.25505935,7.33187746 L4.95798977,5.54361467 C4.42085608,5.36478839 4.06276694,5.54361467 3.7046076,5.90126722 L0.123716284,12.160187 C-0.0553282815,12.3390133 0.123716284,12.8754921 0.481805416,13.2331447 L4.2417413,16.0943652 C4.2417413,16.630844 4.06269673,17.1673228 4.06269673,17.882628 C4.06269673,18.5979331 4.06269673,19.1344119 4.2417413,19.6708907 L0.481805416,22.7109375 C0.123716284,23.0686602 0.123716284,23.4262426 0.30276085,23.7839653 L3.88365216,30.0428851 C4.06269673,30.2217114 4.42071565,30.4005376 4.95791956,30.2217114 L9.4340337,28.4334486 C10.3292565,29.1487537 11.4035239,29.6852325 12.4777913,30.2217114 L13.1939696,34.8711946 C13.1939696,35.2288472 13.5520587,35.5864998 14.0891924,35.5864998 L21.250975,35.5864998 C21.6091344,35.5864998 22.1461979,35.2287771 22.1461979,34.8711946 L22.8623761,30.2217114 C23.9366435,29.6852325 25.0109109,29.1487537 25.9061338,28.4334486 L30.3822479,30.2217114 C30.7404072,30.4005376 31.2774707,30.2217114 31.4565855,29.8639887 L35.0374768,23.6050689 C35.2165214,23.2474163 35.2165214,22.7109375 34.858362,22.5321112 L30.7404072,19.6708907 L30.7404072,19.6708907 Z M17.4911094,24.1415477 C14.0892626,24.1415477 11.2245496,21.2803273 11.2245496,17.882628 C11.2245496,14.4849286 14.0892626,11.6237082 17.4911094,11.6237082 C20.8929561,11.6237082 23.7576692,14.4849286 23.7576692,17.882628 C23.7576692,21.2803273 20.8929561,24.1415477 17.4911094,24.1415477 L17.4911094,24.1415477 Z" id="Shape"></path>
            </g>
        </g>
    </g>
</svg>