<?xml version="1.0" encoding="UTF-8" standalone="no"?>
<svg width="24px" height="21px" viewBox="0 0 24 21" version="1.1" xmlns="http://www.w3.org/2000/svg" xmlns:xlink="http://www.w3.org/1999/xlink">
    <!-- Generator: Sketch 3.8.3 (29802) - http://www.bohemiancoding.com/sketch -->
    <title>selected_icon</title>
    <desc>Created with Sketch.</desc>
    <defs></defs>
    <g id="specification" stroke="none" stroke-width="1" fill="none" fill-rule="evenodd">
        <g id="spec" transform="translate(-313.000000, -3272.000000)" fill="#FFFFFF">
            <g id="selected_icon" transform="translate(313.000000, 3272.000000)">
                <path d="M22,1 L22,0 L2,0 L2,2 L20,2 L20,4 L22,4 L22,1 Z M0,17 L4,17 L4,19 L0,19 L0,17 Z M0,0 L2,0 L2,17 L0,17 L0,0 Z" id="Combined-Shape"></path>
                <path d="M22,19 L6,19 L6,4 L4,4 L4,20 L4,21 L22.5,21 L24,21 L24,5 L24,4 L6,4 L6,6 L22,6 L22,19 Z" id="Combined-Shape-Copy"></path>
                <path d="M6,8 L22,8 L22,9 L6,9 L6,8 Z M17,9 L18,9 L18,19 L17,19 L17,9 Z" id="Combined-Shape"></path>
            </g>
        </g>
    </g>
</svg>