<?xml version="1.0" encoding="UTF-8" standalone="no"?>
<svg width="24px" height="23px" viewBox="0 0 24 23" version="1.1" xmlns="http://www.w3.org/2000/svg" xmlns:xlink="http://www.w3.org/1999/xlink">
    <!-- Generator: Sketch 3.8.3 (29802) - http://www.bohemiancoding.com/sketch -->
    <title>selected_icon</title>
    <desc>Created with Sketch.</desc>
    <defs>
        <polygon id="path-1" points="0 0 24 0 24 23 0 23"></polygon>
    </defs>
    <g id="specification" stroke="none" stroke-width="1" fill="none" fill-rule="evenodd">
        <g id="spec" transform="translate(-612.000000, -2758.000000)">
            <g id="selected_icon" transform="translate(612.000000, 2758.000000)">
                <mask id="mask-2" fill="white">
                    <use xlink:href="#path-1"></use>
                </mask>
                <g id="Clip-2"></g>
                <path d="M6.97425882,13.5701438 C5.80672941,13.5701438 4.85661176,12.6055813 4.85661176,11.4138938 C4.85661176,10.2222063 5.80390588,9.25764375 6.97425882,9.25764375 C8.14461176,9.25764375 9.09190588,10.2222063 9.09190588,11.4138938 C9.09190588,12.6055813 8.14461176,13.5701438 6.97425882,13.5701438 L6.97425882,13.5701438 Z M7.05896471,15.1801438 C5.06555294,15.1801438 3.44484706,13.5327688 3.44484706,11.5001438 C3.44484706,9.46751875 5.06272941,7.82014375 7.05896471,7.82014375 C9.0552,7.82014375 10.6730824,9.46751875 10.6730824,11.5001438 C10.6730824,13.5327688 9.0552,15.1801438 7.05896471,15.1801438 L7.05896471,15.1801438 Z M12.7610824,11.5001438 C12.7610824,10.6045813 13.3046118,9.89733125 14.1177882,9.41145625 C13.9709647,8.91264375 13.7761412,8.42964375 13.5361412,7.98114375 C12.6213176,8.22408125 11.8829647,7.86183125 11.2575529,7.22501875 C10.6363765,6.59251875 10.4443765,5.83639375 10.6843765,4.90345625 C10.2424941,4.66051875 9.77237647,4.46214375 9.27967059,4.31264375 C8.80108235,5.14351875 7.94131765,5.69408125 7.05896471,5.69408125 C6.18084706,5.69408125 5.31684706,5.14351875 4.83825882,4.31264375 C4.34555294,4.46214375 3.87543529,4.66051875 3.43355294,4.90345625 C3.67214118,5.83639375 3.48155294,6.58820625 2.86037647,7.22501875 C2.2392,7.85751875 1.49661176,8.22408125 0.584611765,7.98114375 C0.341788235,8.42964375 0.146964706,8.90976875 0.000141176471,9.41145625 C0.816141176,9.89733125 1.35967059,10.6045813 1.35967059,11.5001438 C1.35967059,12.3942688 0.816141176,13.2740188 0.000141176471,13.7613313 C0.146964706,14.2630188 0.341788235,14.7417063 0.580376471,15.1916438 C1.49661176,14.9472688 2.23496471,15.1427688 2.85614118,15.7752688 C3.48155294,16.4077688 3.66931765,17.1638938 3.43072941,18.0953938 C3.87543529,18.3397688 4.34131765,18.5381438 4.83402353,18.6876438 C5.31261176,17.8567688 6.17661176,17.3062063 7.05472941,17.3062063 C7.93425882,17.3062063 8.79825882,17.8567688 9.27543529,18.6876438 C9.76814118,18.5381438 10.2396706,18.3397688 10.6801412,18.0953938 C10.4415529,17.1638938 10.6321412,16.4120813 11.2533176,15.7752688 C11.8744941,15.1427688 12.6170824,14.7762063 13.5333176,15.0191438 C13.7719059,14.5663313 13.9667294,14.0862063 14.1135529,13.5888313 C13.3017882,13.1015188 12.7610824,12.3942688 12.7610824,11.5001438 L12.7610824,11.5001438 Z M5.6472,2.87514375 L7.76484706,2.87514375 L7.76484706,2.15639375 L18.3530824,2.15639375 L18.3530824,5.75014375 L21.8824941,5.75014375 L21.8824941,20.8438938 L7.76484706,20.8438938 C7.74084706,20.8438938 7.76484706,20.6598938 7.76484706,20.1251438 C7.76484706,20.0848938 5.6472,20.1251438 5.6472,20.1251438 L5.6472,23.0001438 L24.0001412,23.0001438 L24.0001412,4.31264375 L19.7648471,0.00014375 L5.6472,0.00014375 L5.6472,2.87514375 Z" id="Fill-1" fill="#FFFFFF" mask="url(#mask-2)"></path>
            </g>
        </g>
    </g>
</svg>