<?xml version="1.0" encoding="UTF-8"?>
<svg width="100px" height="97px" viewBox="0 0 100 97" version="1.1" xmlns="http://www.w3.org/2000/svg" xmlns:xlink="http://www.w3.org/1999/xlink">
    <!-- Generator: Sketch 44.1 (41455) - http://www.bohemiancoding.com/sketch -->
    <title>cloud-data</title>
    <desc>Created with Sketch.</desc>
    <defs></defs>
    <g id="Data-source" stroke="none" stroke-width="1" fill="none" fill-rule="evenodd">
        <g id="Edit" transform="translate(-145.000000, -305.000000)" fill-rule="nonzero" fill="#EEEEEE">
            <g id="cloud-data" transform="translate(145.000000, 305.000000)">
                <path d="M25.8775321,20.6896552 L74.1224679,20.6896552 C75.0831916,20.6896552 75.862069,19.9177011 75.862069,18.9655172 C75.862069,18.0133333 75.0831916,17.2413793 74.1224679,17.2413793 L25.8775321,17.2413793 C24.9168084,17.2413793 24.137931,18.0133333 24.137931,18.9655172 C24.137931,19.9177011 24.9168084,20.6896552 25.8775321,20.6896552 Z" id="Shape"></path>
                <path d="M25.8775321,32.183908 L74.1224679,32.183908 C75.0831916,32.183908 75.862069,31.411954 75.862069,30.4597701 C75.862069,29.5075862 75.0831916,28.7356322 74.1224679,28.7356322 L25.8775321,28.7356322 C24.9168084,28.7356322 24.137931,29.5075862 24.137931,30.4597701 C24.137931,31.411954 24.9168084,32.183908 25.8775321,32.183908 Z" id="Shape"></path>
                <path d="M86.9166169,59.7899784 L86.9166169,13.1017941 C86.9166169,13.1017941 86.7378802,12.1884456 86.4019584,11.8499236 L75.1577123,0.518642192 C74.8217904,0.179884092 74.3724891,0.00448529888 73.9154573,0.00424923052 L14.8831653,0 C13.9128805,0 13.1262518,0.792717561 13.1262518,1.77051272 L13.1262518,51.8153531 C5.36022582,55.6514639 0,63.7002148 0,72.9876163 C0,85.981055 10.4897103,96.5517241 23.3831125,96.5517241 L81.3336144,96.5517241 C91.6263162,96.5517241 100,88.1132245 100,77.7408528 C100,69.3278485 94.4903194,62.1874887 86.9166169,59.7899784 Z M75.6723708,6.04476649 L80.9182801,11.3312814 L75.6723708,11.3312814 L75.6723708,6.04476649 Z M16.6400787,3.54102544 L72.1585439,3.54102544 L72.1585439,13.1017941 C72.1585439,14.0795893 72.9451726,14.8723068 73.9154573,14.8723068 L83.40279,14.8723068 L83.40279,59.0482516 C82.7300093,58.9731819 82.0476241,58.9311617 81.3556344,58.9302174 C81.3568057,58.8305966 81.3575085,58.7314479 81.3575085,58.6327713 C81.3575085,52.4118978 79.0226876,46.7309127 75.1907422,42.4304553 C75.7548286,42.135842 76.140881,41.5433104 76.140881,40.8587122 C76.140881,39.880917 75.3542523,39.0881994 74.3839676,39.0881994 L71.5398761,39.0881994 C67.5423123,36.1156266 62.6053855,34.355973 57.2674139,34.355973 C51.9376413,34.355973 46.9751807,36.0993379 42.9537229,39.0881994 L25.6589011,39.0881994 C24.6886164,39.0881994 23.9019877,39.880917 23.9019877,40.8587122 C23.9019877,41.8365073 24.6886164,42.6292249 25.6589011,42.6292249 L39.1285709,42.6292249 C36.8178784,45.2908957 35.0689296,48.4818317 34.082247,52.0344245 C30.7855746,50.3200961 27.1318973,49.4235084 23.3831125,49.4235084 C21.0396243,49.4235084 18.776017,49.774306 16.6398445,50.4237301 L16.6398445,3.54102544 L16.6400787,3.54102544 Z M81.3338487,93.0109348 L23.3833468,93.0109348 C12.4272345,93.0109348 3.51406116,84.0285336 3.51406116,72.9878523 C3.51406116,61.9471711 12.4274688,52.9647699 23.3833468,52.9647699 C27.2792438,52.9647699 31.0540309,54.1042719 34.2996357,56.2600482 C34.7946168,56.5886553 35.4205465,56.6436593 35.9644869,56.4064106 C36.5084273,56.1691619 36.8968223,55.6712937 36.9977863,55.0827753 C38.7024609,45.1247035 47.2272392,37.8972346 57.2674139,37.8972346 C68.6133268,37.8972346 77.8436816,47.1992723 77.8436816,58.6327713 C77.8436816,59.280779 77.8108858,59.9540459 77.7462314,60.6339228 C77.6958666,61.1638963 77.8846762,61.6884402 78.2604214,62.0623725 C78.6359324,62.4363048 79.1578528,62.6204381 79.6839898,62.5630735 C80.2429226,62.5021678 80.797873,62.4712429 81.3336144,62.4712429 C89.6887921,62.4712429 96.4861731,69.3212385 96.4861731,77.7410888 C96.4861731,86.1609391 89.6890263,93.0109348 81.3338487,93.0109348 L81.3338487,93.0109348 Z" id="Shape"></path>
            </g>
        </g>
    </g>
</svg>